Coordinates
version=1
nRows=27
nColumns=12
inDegrees=yes

Units are S.I. units (second, meters, Newtons, ...)
Angles are in degrees

endheader
time	SC_y	SC_z	SC_x	AC_y	AC_z	AC_x	GH_y	GH_z	GH_yy	EL_x	PS_y
       0.0              -27.79          25.25          20.97          61.12         -9.757         -19.61         -51.94          64.87         -12.94          19.77          135.5
   0.04964              -27.79          25.25          20.98          61.12         -9.757          -19.6         -51.96          64.86         -12.96          19.77          135.5
   0.09928              -27.79          25.25          20.98          61.12         -9.757          -19.6         -51.98          64.85         -12.97          19.78          135.5
    0.1489              -27.79          25.24          20.99          61.11         -9.758         -19.59          -52.0          64.85         -12.99          19.78          135.5
    0.1986              -27.78          25.24          20.99           61.1         -9.758         -19.59         -52.02          64.84         -13.01          19.78          135.4
    0.2482              -27.78          25.24           21.0           61.1         -9.758         -19.58         -52.04          64.83         -13.03          19.79          135.4
    0.2978              -27.78          25.24          21.01          61.09         -9.758         -19.58         -52.07          64.82         -13.05          19.79          135.4
    0.3475              -27.77          25.24          21.02          61.09         -9.758         -19.57         -52.09          64.81         -13.07          19.79          135.4
    0.3971              -27.77          25.24          21.02          61.08         -9.758         -19.57         -52.12           64.8          -13.1           19.8          135.3
    0.4468              -27.77          25.24          21.03          61.07         -9.758         -19.56         -52.15          64.79         -13.12           19.8          135.3
    0.4964              -27.76          25.24          21.04          61.06         -9.758         -19.55         -52.18          64.78         -13.15          19.81          135.3
     0.546              -27.76          25.24          21.05          61.05         -9.758         -19.54         -52.21          64.76         -13.18          19.81          135.2
    0.5957              -27.75          25.23          21.06          61.04         -9.758         -19.53         -52.25          64.75         -13.22          19.82          135.2
    0.6453              -27.75          25.23          21.07          61.03         -9.758         -19.53         -52.29          64.73         -13.25          19.82          135.2
    0.6949              -27.74          25.23          21.09          61.02         -9.759         -19.52         -52.33          64.71         -13.29          19.83          135.1
    0.7446              -27.74          25.23           21.1          61.01         -9.759          -19.5         -52.38           64.7         -13.33          19.84          135.1
    0.7942              -27.73          25.23          21.11           61.0         -9.759         -19.49         -52.43          64.68         -13.37          19.85          135.0
    0.8439              -27.73          25.23          21.13          60.98         -9.759         -19.48         -52.48          64.65         -13.42          19.85          134.9
    0.8935              -27.72          25.22          21.15          60.97         -9.759         -19.46         -52.54          64.63         -13.48          19.86          134.9
    0.9431              -27.71          25.22          21.17          60.95          -9.76         -19.45          -52.6           64.6         -13.54          19.87          134.8
    0.9928               -27.7          25.22          21.19          60.93          -9.76         -19.43         -52.68          64.58          -13.6          19.88          134.7
     1.042              -27.69          25.21          21.21          60.91          -9.76         -19.41         -52.75          64.54         -13.67           19.9          134.6
     1.092              -27.68          25.21          21.23          60.89          -9.76         -19.39         -52.84          64.51         -13.75          19.91          134.5
     1.142              -27.67          25.21          21.26          60.86         -9.761         -19.37         -52.94          64.47         -13.84          19.92          134.4
     1.191              -27.66           25.2          21.29          60.84         -9.761         -19.34         -53.04          64.43         -13.93          19.94          134.3
     1.241              -27.64           25.2          21.33          60.81         -9.761         -19.31         -53.16          64.38         -14.04          19.96          134.2
     1.291              -27.63          25.19          21.37          60.77         -9.762         -19.28          -53.3          64.33         -14.16          19.98          134.1
